<svg width="1017" height="490" viewBox="0 0 1017 490" fill="none" xmlns="http://www.w3.org/2000/svg">
<g id="avr_1+1_test">
<g id="layer_2">
<path id="path4139" d="M234.5 311.5H400.5" stroke="#B5C6CF" stroke-width="1.55478"/>
<path id="path4139_2" d="M636.5 311.5H803.709" stroke="#B5C6CF" stroke-width="1.55478"/>
<path id="path4139_3" d="M315.5 90.5L400.5 90.5" stroke="#B5C6CF" stroke-width="2" stroke-dasharray="9.11 9.11"/>
<path id="path4139_4" d="M304 311.191L315.5 304.092L315.5 90.5001" stroke="#B5C6CF" stroke-width="2" stroke-dasharray="9.11 9.11"/>
<path id="path4139_5" d="M735.5 311.191L724 304.092L724 90.5001" stroke="#B5C6CF" stroke-width="2" stroke-dasharray="9.11 9.11"/>
<path id="path4139_6" d="M635.5 91.1174H723.5" stroke="#B5C6CF" stroke-width="2" stroke-dasharray="9.11 9.11"/>
</g>
<g id="layer_1">
<g id="exiter_0">
<g id="rect8952-3" filter="url(#filter0_d_0_1)">
<path d="M656.5 19.5H382.5C375.873 19.5 370.5 24.8726 370.5 31.5V191.5C370.5 198.127 375.873 203.5 382.5 203.5H656.5C663.127 203.5 668.5 198.127 668.5 191.5V31.5C668.5 24.8726 663.127 19.5 656.5 19.5Z" fill="#F7F7F7"/>
<path d="M656.5 19.5H382.5C375.873 19.5 370.5 24.8726 370.5 31.5V191.5C370.5 198.127 375.873 203.5 382.5 203.5H656.5C663.127 203.5 668.5 198.127 668.5 191.5V31.5C668.5 24.8726 663.127 19.5 656.5 19.5Z" stroke="#C4C4C4" stroke-linecap="round"/>
</g>
<g id="secondary_info">
<g id="g8994">
<text id="exiter_0_input_signal_type_value" fill="black" style="white-space: pre" xml:space="preserve" font-family="Roboto" font-size="17.3333" letter-spacing="0em"><tspan x="634.919" y="124.476">--</tspan></text>
<text id="text8992" fill="black" style="white-space: pre" xml:space="preserve" font-family="Roboto" font-size="16" letter-spacing="0em"><tspan x="394.5" y="124.774">&#x422;&#x438;&#x43f; &#x441;&#x438;&#x433;&#x43d;&#x430;&#x43b;&#x430;</tspan></text>
</g>
<g id="g8994_2">
<text id="exiter_0_freq_value" fill="black" style="white-space: pre" xml:space="preserve" font-family="Roboto" font-size="17.3333" letter-spacing="0em"><tspan x="634.919" y="145.844">--</tspan></text>
<text id="text8992_2" fill="black" style="white-space: pre" xml:space="preserve" font-family="Roboto" font-size="16" letter-spacing="0em"><tspan x="394.5" y="146.143">&#x41d;&#x435;&#x441;. &#x447;&#x430;&#x441;&#x442;&#x43e;&#x442;&#x430;</tspan></text>
</g>
<g id="g8994_3">
<text id="exiter_0_refl_pwr_value" fill="black" style="white-space: pre" xml:space="preserve" font-family="Roboto" font-size="17.3333" letter-spacing="0em"><tspan x="634.919" y="167.212">--</tspan></text>
<text id="text8992_3" fill="black" style="white-space: pre" xml:space="preserve" font-family="Roboto" font-size="16" letter-spacing="0em"><tspan x="394.5" y="167.51">&#x41c;&#x43e;&#x449;&#x43d;. &#x43e;&#x442;&#x440;.</tspan></text>
</g>
<g id="g9004">
<text id="exiter_0_swr_value" fill="black" style="white-space: pre" xml:space="preserve" font-family="Roboto" font-size="17.3333" letter-spacing="0em"><tspan x="634.919" y="188.58">--</tspan></text>
<text id="text9002" fill="black" style="white-space: pre" xml:space="preserve" font-family="Roboto" font-size="16" letter-spacing="0em"><tspan x="394.5" y="188.624">&#x41a;&#x421;&#x412;</tspan></text>
</g>
</g>
<g id="header">
<path id="exiter_0_device_icon" d="M393.17 30.9373H381.17C380.618 30.9373 380.17 31.3877 380.17 31.9432V44.0151C380.17 44.5707 380.618 45.0211 381.17 45.0211H393.17C393.722 45.0211 394.17 44.5707 394.17 44.0151V31.9432C394.17 31.3877 393.722 30.9373 393.17 30.9373Z" fill="#7ADC47"/>
<text id="exiter_0_header_label" fill="#626879" style="white-space: pre" xml:space="preserve" font-family="Roboto" font-size="21.3333" font-weight="500" letter-spacing="0em"><tspan x="403.617" y="42.945">&#x43f;&#x435;&#x440;&#x435;&#x434;&#x430;&#x442;&#x447;&#x438;&#x43a; 2</tspan></text>
<g id="exiter_0_power_button" clip-path="url(#clip0_0_1)">
<path id="power_btn_cover" d="M585.5 45.5838C589.366 45.5838 592.5 42.4311 592.5 38.5419C592.5 34.6528 589.366 31.5 585.5 31.5C581.634 31.5 578.5 34.6528 578.5 38.5419C578.5 42.4311 581.634 45.5838 585.5 45.5838Z" fill="#7ADC47"/>
<path id="Vector" d="M588.16 34.6733L587.314 35.5192C588.323 36.1317 589 37.2342 589 38.5C589 39.4283 588.631 40.3185 587.975 40.9749C587.319 41.6313 586.428 42 585.5 42C584.572 42 583.682 41.6313 583.025 40.9749C582.369 40.3185 582 39.4283 582 38.5C582 37.2342 582.677 36.1317 583.68 35.5133L582.84 34.6733C581.627 35.5133 580.833 36.9133 580.833 38.5C580.833 39.7377 581.325 40.9247 582.2 41.7998C583.076 42.675 584.262 43.1667 585.5 43.1667C586.738 43.1667 587.925 42.675 588.8 41.7998C589.675 40.9247 590.167 39.7377 590.167 38.5C590.167 36.9133 589.373 35.5133 588.16 34.6733ZM586.083 33.25H584.917V39.0833H586.083" fill="black"/>
</g>
<text id="exiter_0_station_header_value" fill="#626879" style="white-space: pre" xml:space="preserve" font-family="Roboto" font-size="16" font-style="italic" letter-spacing="0em"><tspan x="403.5" y="64.4688">--</tspan></text>
</g>
<g id="primary_info_output">
<g id="g10081-4">
<path id="circle9062-2" d="M654.179 95.4951C656.664 95.4951 658.679 93.4683 658.679 90.9681C658.679 88.4679 656.664 86.4412 654.179 86.4412C651.694 86.4412 649.679 88.4679 649.679 90.9681C649.679 93.4683 651.694 95.4951 654.179 95.4951Z" fill="#626879"/>
<text id="exiter_0_output_pwr_value" fill="black" style="white-space: pre" xml:space="preserve" font-family="Roboto" font-size="18.6667" letter-spacing="0em"><tspan x="632.283" y="95.6058">--</tspan></text>
</g>
</g>
<g id="path8984">
<path d="M396.2 104.027L642.5 103.479Z" fill="#C4C4C4"/>
<path d="M396.2 104.027L642.5 103.479" stroke="#C4C4C4" stroke-width="0.809128"/>
</g>
<g id="primary_info_input">
<path id="circle8962" d="M385 96.7695C387.485 96.7695 389.5 94.7427 389.5 92.2425C389.5 89.7424 387.485 87.7156 385 87.7156C382.515 87.7156 380.5 89.7424 380.5 92.2425C380.5 94.7427 382.515 96.7695 385 96.7695Z" fill="#626879"/>
<text id="exiter_0_input_signal_value" fill="black" style="white-space: pre" xml:space="preserve" font-family="Roboto" font-size="18.6667" letter-spacing="0em"><tspan x="396.5" y="96.8802">--</tspan></text>
</g>
</g>
<g id="exiter_1">
<g id="rect8952-3_2" filter="url(#filter1_d_0_1)">
<path d="M657.5 239.5H383.5C376.873 239.5 371.5 244.873 371.5 251.5V411.5C371.5 418.127 376.873 423.5 383.5 423.5H657.5C664.127 423.5 669.5 418.127 669.5 411.5V251.5C669.5 244.873 664.127 239.5 657.5 239.5Z" fill="#F7F7F7"/>
<path d="M657.5 239.5H383.5C376.873 239.5 371.5 244.873 371.5 251.5V411.5C371.5 418.127 376.873 423.5 383.5 423.5H657.5C664.127 423.5 669.5 418.127 669.5 411.5V251.5C669.5 244.873 664.127 239.5 657.5 239.5Z" stroke="#C4C4C4" stroke-linecap="round"/>
</g>
<g id="secondary_info_2">
<g id="g8994_4">
<text id="exiter_1_input_signal_type_value" fill="black" style="white-space: pre" xml:space="preserve" font-family="Roboto" font-size="17.3333" letter-spacing="0em"><tspan x="635.917" y="344.476">--</tspan></text>
<text id="text8992_4" fill="black" style="white-space: pre" xml:space="preserve" font-family="Roboto" font-size="16" letter-spacing="0em"><tspan x="395.503" y="344.774">&#x422;&#x438;&#x43f; &#x441;&#x438;&#x433;&#x43d;&#x430;&#x43b;&#x430;</tspan></text>
</g>
<g id="g8994_5">
<text id="exiter_1_freq_value" fill="black" style="white-space: pre" xml:space="preserve" font-family="Roboto" font-size="17.3333" letter-spacing="0em"><tspan x="635.919" y="365.844">--</tspan></text>
<text id="text8992_5" fill="black" style="white-space: pre" xml:space="preserve" font-family="Roboto" font-size="16" letter-spacing="0em"><tspan x="395.5" y="366.143">&#x41d;&#x435;&#x441;. &#x447;&#x430;&#x441;&#x442;&#x43e;&#x442;&#x430;</tspan></text>
</g>
<g id="g8994_6">
<text id="exiter_1_refl_pwr_value" fill="black" style="white-space: pre" xml:space="preserve" font-family="Roboto" font-size="17.3333" letter-spacing="0em"><tspan x="635.919" y="387.212">--</tspan></text>
<text id="text8992_6" fill="black" style="white-space: pre" xml:space="preserve" font-family="Roboto" font-size="16" letter-spacing="0em"><tspan x="395.5" y="387.51">&#x41c;&#x43e;&#x449;&#x43d;. &#x43e;&#x442;&#x440;.</tspan></text>
</g>
<g id="g9004_2">
<text id="exiter_1_swr_value" fill="black" style="white-space: pre" xml:space="preserve" font-family="Roboto" font-size="17.3333" letter-spacing="0em"><tspan x="635.919" y="408.58">--</tspan></text>
<text id="text9002_2" fill="black" style="white-space: pre" xml:space="preserve" font-family="Roboto" font-size="16" letter-spacing="0em"><tspan x="395.5" y="408.624">&#x41a;&#x421;&#x412;</tspan></text>
</g>
</g>
<g id="header_2">
<path id="exiter_1_device_icon" d="M394.17 250.937H382.17C381.618 250.937 381.17 251.388 381.17 251.943V264.015C381.17 264.571 381.618 265.021 382.17 265.021H394.17C394.722 265.021 395.17 264.571 395.17 264.015V251.943C395.17 251.388 394.722 250.937 394.17 250.937Z" fill="#7ADC47"/>
<text id="exiter_1_header_label" fill="#626879" style="white-space: pre" xml:space="preserve" font-family="Roboto" font-size="21.3333" font-weight="500" letter-spacing="0em"><tspan x="404.617" y="262.945">&#x43f;&#x435;&#x440;&#x435;&#x434;&#x430;&#x442;&#x447;&#x438;&#x43a; 1</tspan></text>
<g id="exiter_1_power_button" clip-path="url(#clip1_0_1)">
<path id="power_btn_cover_2" d="M586.5 265.584C590.366 265.584 593.5 262.431 593.5 258.542C593.5 254.653 590.366 251.5 586.5 251.5C582.634 251.5 579.5 254.653 579.5 258.542C579.5 262.431 582.634 265.584 586.5 265.584Z" fill="#7ADC47"/>
<path id="Vector_2" d="M589.16 254.673L588.314 255.519C589.323 256.132 590 257.234 590 258.5C590 259.428 589.631 260.318 588.975 260.975C588.319 261.631 587.428 262 586.5 262C585.572 262 584.682 261.631 584.025 260.975C583.369 260.318 583 259.428 583 258.5C583 257.234 583.677 256.132 584.68 255.513L583.84 254.673C582.627 255.513 581.833 256.913 581.833 258.5C581.833 259.738 582.325 260.925 583.2 261.8C584.076 262.675 585.262 263.167 586.5 263.167C587.738 263.167 588.925 262.675 589.8 261.8C590.675 260.925 591.167 259.738 591.167 258.5C591.167 256.913 590.373 255.513 589.16 254.673ZM587.083 253.25H585.917V259.083H587.083" fill="black"/>
</g>
<text id="exiter_1_station_header_value" fill="#626879" style="white-space: pre" xml:space="preserve" font-family="Roboto" font-size="16" font-style="italic" letter-spacing="0em"><tspan x="404.5" y="284.469">--</tspan></text>
</g>
<g id="primary_info_output_2">
<g id="g10081-4_2">
<path id="circle9062-2_2" d="M655.179 315.495C657.664 315.495 659.679 313.468 659.679 310.968C659.679 308.468 657.664 306.441 655.179 306.441C652.694 306.441 650.679 308.468 650.679 310.968C650.679 313.468 652.694 315.495 655.179 315.495Z" fill="#626879"/>
<text id="exiter_1_output_pwr_value" fill="black" style="white-space: pre" xml:space="preserve" font-family="Roboto" font-size="18.6667" letter-spacing="0em"><tspan x="633.283" y="315.606">--</tspan></text>
</g>
</g>
<g id="path8984_2">
<path d="M397.2 324.027L643.5 323.479Z" fill="#C4C4C4"/>
<path d="M397.2 324.027L643.5 323.479" stroke="#C4C4C4" stroke-width="0.809128"/>
</g>
<g id="primary_info_input_2">
<path id="circle8962_2" d="M386 316.769C388.485 316.769 390.5 314.743 390.5 312.243C390.5 309.742 388.485 307.716 386 307.716C383.515 307.716 381.5 309.742 381.5 312.243C381.5 314.743 383.515 316.769 386 316.769Z" fill="#626879"/>
<text id="exiter_1_input_signal_value" fill="black" style="white-space: pre" xml:space="preserve" font-family="Roboto" font-size="18.6667" letter-spacing="0em"><tspan x="397.5" y="316.88">--</tspan></text>
</g>
</g>
<g id="input_0">
<g id="rect8952-3_3" filter="url(#filter2_d_0_1)">
<path d="M233.5 15.5H33.5C26.8726 15.5 21.5 20.8726 21.5 27.5V163.5C21.5 170.127 26.8726 175.5 33.5 175.5H233.5C240.127 175.5 245.5 170.127 245.5 163.5V27.5C245.5 20.8726 240.127 15.5 233.5 15.5Z" fill="#F7F7F7"/>
<path d="M233.5 15.5H33.5C26.8726 15.5 21.5 20.8726 21.5 27.5V163.5C21.5 170.127 26.8726 175.5 33.5 175.5H233.5C240.127 175.5 245.5 170.127 245.5 163.5V27.5C245.5 20.8726 240.127 15.5 233.5 15.5Z" stroke="#C4C4C4" stroke-linecap="round"/>
</g>
<g id="secondary_info_3">
<g id="g8994_7">
<text id="input_0_l_value" fill="black" style="white-space: pre" xml:space="preserve" font-family="Roboto" font-size="17.3333" letter-spacing="0em"><tspan x="194.591" y="95.9757">--</tspan></text>
<text id="text8992_7" fill="black" style="white-space: pre" xml:space="preserve" font-family="Roboto" font-size="16" letter-spacing="0em"><tspan x="45.5" y="96.2744">L</tspan></text>
</g>
<g id="g9004_3">
<text id="input_0_r_value" fill="black" style="white-space: pre" xml:space="preserve" font-family="Roboto" font-size="17.3333" letter-spacing="0em"><tspan x="194.729" y="118.23">--</tspan></text>
<text id="text9002_3" fill="black" style="white-space: pre" xml:space="preserve" font-family="Roboto" font-size="16" letter-spacing="0em"><tspan x="45.5" y="118.529">R</tspan></text>
</g>
<g id="g9004_4">
<text id="input_0_mpx_value" fill="black" style="white-space: pre" xml:space="preserve" font-family="Roboto" font-size="17.3333" letter-spacing="0em"><tspan x="194.591" y="140.485">--</tspan></text>
<text id="text9002_4" fill="black" style="white-space: pre" xml:space="preserve" font-family="Roboto" font-size="16" letter-spacing="0em"><tspan x="45.5" y="140.783">&#x41a;&#x421;&#x421;</tspan></text>
</g>
<g id="g9004_5">
<text id="input_0_aes_value" fill="black" style="white-space: pre" xml:space="preserve" font-family="Roboto" font-size="17.3333" letter-spacing="0em"><tspan x="194.591" y="162.739">--</tspan></text>
<text id="AES" fill="black" style="white-space: pre" xml:space="preserve" font-family="Roboto" font-size="16" letter-spacing="0em"><tspan x="45.5" y="163.038">AES</tspan></text>
</g>
</g>
<g id="header_3">
<path id="input_0_device_icon" d="M44.1699 27.4373H32.1699C31.6176 27.4373 31.1699 27.8877 31.1699 28.4432V40.5151C31.1699 41.0707 31.6176 41.5211 32.1699 41.5211H44.1699C44.7222 41.5211 45.1699 41.0707 45.1699 40.5151V28.4432C45.1699 27.8877 44.7222 27.4373 44.1699 27.4373Z" fill="#7ADC47"/>
<text id="input_0_header_label" fill="#626879" style="white-space: pre" xml:space="preserve" font-family="Roboto" font-size="21.3333" font-weight="500" letter-spacing="0em"><tspan x="54.6172" y="39.445">&#x442;&#x435;&#x441;&#x442;</tspan></text>
<g id="input_0_control_buttons">
<g id="input_0_set_l_button">
<rect id="Rectangle 21" x="115.5" y="23.5" width="24" height="22" rx="8" stroke="#E0E7EB" stroke-width="2" stroke-linecap="round"/>
<text id="L" fill="black" style="white-space: pre" xml:space="preserve" font-family="Roboto" font-size="15" font-style="italic" letter-spacing="0em"><tspan x="122.582" y="39.627">L</tspan></text>
</g>
<g id="input_0_set_r_button">
<rect id="Rectangle 21_2" x="145.5" y="23.5" width="24" height="22" rx="8" stroke="#E0E7EB" stroke-width="2" stroke-linecap="round"/>
<text id="text8992_8" fill="black" style="white-space: pre" xml:space="preserve" font-family="Roboto" font-size="15" font-style="italic" letter-spacing="0em"><tspan x="152.518" y="39.627">R</tspan></text>
</g>
<g id="input_0_set_stereo_button">
<rect id="Rectangle 21_3" x="175.5" y="23.5" width="61" height="22" rx="8" stroke="#E0E7EB" stroke-width="2" stroke-linecap="round"/>
<text id="st" fill="black" style="white-space: pre" xml:space="preserve" font-family="Roboto" font-size="15" font-style="italic" letter-spacing="0em"><tspan x="179.567" y="39.627">STEREO</tspan></text>
</g>
<g id="input_0_set_mpx_button">
<rect id="Rectangle 21_4" x="115.5" y="50.5" width="55" height="22" rx="8" stroke="#E0E7EB" stroke-width="2" stroke-linecap="round"/>
<text id="st_2" fill="black" style="white-space: pre" xml:space="preserve" font-family="Roboto" font-size="15" font-style="italic" letter-spacing="0em"><tspan x="128.959" y="66.627">&#x41a;&#x421;&#x421;</tspan></text>
</g>
<g id="input_0_set_aes_button">
<rect id="Rectangle 21_5" x="176.5" y="50.5" width="60" height="22" rx="8" stroke="#E0E7EB" stroke-width="2" stroke-linecap="round"/>
<text id="st_3" fill="black" style="white-space: pre" xml:space="preserve" font-family="Roboto" font-size="15" font-style="italic" letter-spacing="0em"><tspan x="192.794" y="66.627">AES</tspan></text>
</g>
</g>
</g>
<g id="g9929-10">
<g id="g10081-4_3">
<path id="circle9062-2_3" d="M231.179 94.9951C233.664 94.9951 235.679 92.9683 235.679 90.4681C235.679 87.9679 233.664 85.9412 231.179 85.9412C228.694 85.9412 226.679 87.9679 226.679 90.4681C226.679 92.9683 228.694 94.9951 231.179 94.9951Z" fill="#626879"/>
</g>
</g>
<path id="input_0_primary_path_display" d="M235.5 90.5L316.5 90.5" stroke="#B5C6CF" stroke-width="2" stroke-dasharray="9.11 9.11"/>
</g>
<g id="input_1">
<g id="input_1_reserve">
<g id="rect8952-3_4" filter="url(#filter3_d_0_1)">
<path d="M232.5 368.5H32.5C25.8726 368.5 20.5 373.873 20.5 380.5V452.5C20.5 459.127 25.8726 464.5 32.5 464.5H232.5C239.127 464.5 244.5 459.127 244.5 452.5V380.5C244.5 373.873 239.127 368.5 232.5 368.5Z" fill="#F7F7F7"/>
<path d="M232.5 368.5H32.5C25.8726 368.5 20.5 373.873 20.5 380.5V452.5C20.5 459.127 25.8726 464.5 32.5 464.5H232.5C239.127 464.5 244.5 459.127 244.5 452.5V380.5C244.5 373.873 239.127 368.5 232.5 368.5Z" stroke="#C4C4C4" stroke-linecap="round"/>
</g>
<g id="res_secondary_info">
<g id="input_1_res_l_group">
<text id="input_1_res_l_value" fill="black" style="white-space: pre" xml:space="preserve" font-family="Roboto" font-size="17.3333" letter-spacing="0em"><tspan x="208.591" y="428.424">--</tspan></text>
<text id="text8992_9" fill="black" style="white-space: pre" xml:space="preserve" font-family="Roboto" font-size="16" letter-spacing="0em"><tspan x="44.5" y="428.723">L</tspan></text>
</g>
<g id="input_1_res_r_group">
<text id="input_1_res_r_value" fill="black" style="white-space: pre" xml:space="preserve" font-family="Roboto" font-size="17.3333" letter-spacing="0em"><tspan x="208.729" y="450.679">--</tspan></text>
<text id="text9002_5" fill="black" style="white-space: pre" xml:space="preserve" font-family="Roboto" font-size="16" letter-spacing="0em"><tspan x="44.5" y="450.978">R</tspan></text>
</g>
<g id="input_1_res_mpx_group">
<text id="input_1_res_mpx_value" fill="black" style="white-space: pre" xml:space="preserve" font-family="Roboto" font-size="17.3333" letter-spacing="0em"><tspan x="208.591" y="428.424">--</tspan></text>
<text id="text9002_6" fill="black" style="white-space: pre" xml:space="preserve" font-family="Roboto" font-size="16" letter-spacing="0em"><tspan x="44.5" y="428.723">&#x41a;&#x421;&#x421;</tspan></text>
</g>
<g id="input_1_res_aes_group">
<text id="input_1_res_aes_value" fill="black" style="white-space: pre" xml:space="preserve" font-family="Roboto" font-size="17.3333" letter-spacing="0em"><tspan x="208.591" y="428.424">--</tspan></text>
<text id="AES_2" fill="black" style="white-space: pre" xml:space="preserve" font-family="Roboto" font-size="16" letter-spacing="0em"><tspan x="44.5" y="428.723">AES</tspan></text>
</g>
</g>
<g id="header_4">
<path id="input_1_device_icon" d="M43.1699 379.937H31.1699C30.6176 379.937 30.1699 380.388 30.1699 380.943V393.015C30.1699 393.571 30.6176 394.021 31.1699 394.021H43.1699C43.7222 394.021 44.1699 393.571 44.1699 393.015V380.943C44.1699 380.388 43.7222 379.937 43.1699 379.937Z" fill="#7ADC47"/>
<text id="input_1_header_label" fill="#626879" style="white-space: pre" xml:space="preserve" font-family="Roboto" font-size="21.3333" font-weight="500" letter-spacing="0em"><tspan x="53.6172" y="391.945">&#x440;&#x435;&#x437;&#x435;&#x440;&#x432; (&#x41f;&#x420;&#x414;-1&#x420;)</tspan></text>
</g>
<g id="g9929-10_2">
<g id="g10081-4_4">
<path id="circle9062-2_4" d="M230.179 426.495C232.664 426.495 234.679 424.469 234.679 421.968C234.679 419.468 232.664 417.441 230.179 417.441C227.694 417.441 225.679 419.468 225.679 421.968C225.679 424.469 227.694 426.495 230.179 426.495Z" fill="#626879"/>
</g>
</g>
</g>
<g id="input_1_primary">
<g id="rect8952-3_5" filter="url(#filter4_d_0_1)">
<path d="M232.5 258.5H32.5C25.8726 258.5 20.5 263.873 20.5 270.5V344.5C20.5 351.127 25.8726 356.5 32.5 356.5H232.5C239.127 356.5 244.5 351.127 244.5 344.5V270.5C244.5 263.873 239.127 258.5 232.5 258.5Z" fill="#F7F7F7"/>
<path d="M232.5 258.5H32.5C25.8726 258.5 20.5 263.873 20.5 270.5V344.5C20.5 351.127 25.8726 356.5 32.5 356.5H232.5C239.127 356.5 244.5 351.127 244.5 344.5V270.5C244.5 263.873 239.127 258.5 232.5 258.5Z" stroke="#C4C4C4" stroke-linecap="round"/>
</g>
<g id="primary_secondary_info">
<g id="input_1_l_group">
<text id="input_1_l_value" fill="black" style="white-space: pre" xml:space="preserve" font-family="Roboto" font-size="17.3333" letter-spacing="0em"><tspan x="208.591" y="317.679">--</tspan></text>
<text id="text8992_10" fill="black" style="white-space: pre" xml:space="preserve" font-family="Roboto" font-size="16" letter-spacing="0em"><tspan x="44.5" y="317.978">L</tspan></text>
</g>
<g id="input_1_r_group">
<text id="input_1_r_value" fill="black" style="white-space: pre" xml:space="preserve" font-family="Roboto" font-size="17.3333" letter-spacing="0em"><tspan x="208.729" y="339.933">--</tspan></text>
<text id="text9002_7" fill="black" style="white-space: pre" xml:space="preserve" font-family="Roboto" font-size="16" letter-spacing="0em"><tspan x="44.5" y="340.232">R</tspan></text>
</g>
<g id="input_1_mpx_group">
<text id="input_1_mpx_value" fill="black" style="white-space: pre" xml:space="preserve" font-family="Roboto" font-size="17.3333" letter-spacing="0em"><tspan x="208.591" y="317.424">--</tspan></text>
<text id="text9002_8" fill="black" style="white-space: pre" xml:space="preserve" font-family="Roboto" font-size="16" letter-spacing="0em"><tspan x="44.5" y="317.723">&#x41a;&#x421;&#x421;</tspan></text>
</g>
<g id="input_1_aes_group">
<text id="input_1_aes_value" fill="black" style="white-space: pre" xml:space="preserve" font-family="Roboto" font-size="17.3333" letter-spacing="0em"><tspan x="208.591" y="317.424">--</tspan></text>
<text id="AES_3" fill="black" style="white-space: pre" xml:space="preserve" font-family="Roboto" font-size="16" letter-spacing="0em"><tspan x="44.5" y="317.723">AES</tspan></text>
</g>
</g>
<g id="header_5">
<g id="input_1_mode_switch">
<path id="input_mode_switch_background" d="M199.5 285.5C205.023 285.5 209.5 281.023 209.5 275.5C209.5 269.977 205.023 265.5 199.5 265.5C193.977 265.5 189.5 269.977 189.5 275.5C189.5 281.023 193.977 285.5 199.5 285.5Z" fill="#7ADC47"/>
<path id="Vector_3" d="M202.833 278.5H196.167V276.7L193.5 279.1L196.167 281.5V279.7H204.167V276.1H202.833M196.167 272.5H202.833V274.3L205.5 271.9L202.833 269.5V271.3H194.833V274.9H196.167V272.5Z" fill="black"/>
</g>
<path id="input_1_device_icon_2" d="M43.1699 269.937H31.1699C30.6176 269.937 30.1699 270.388 30.1699 270.943V283.015C30.1699 283.571 30.6176 284.021 31.1699 284.021H43.1699C43.7222 284.021 44.1699 283.571 44.1699 283.015V270.943C44.1699 270.388 43.7222 269.937 43.1699 269.937Z" fill="#7ADC47"/>
<text id="input_1_header_label_2" fill="#626879" style="white-space: pre" xml:space="preserve" font-family="Roboto" font-size="21.3333" font-weight="500" letter-spacing="0em"><tspan x="53.6172" y="281.945">&#x432;&#x445;&#x43e;&#x434; (&#x41f;&#x420;&#x414;-1)</tspan></text>
</g>
<g id="g9929-10_3">
<g id="g10081-4_5">
<path id="circle9062-2_5" d="M230.179 316.495C232.664 316.495 234.679 314.469 234.679 311.968C234.679 309.468 232.664 307.441 230.179 307.441C227.694 307.441 225.679 309.468 225.679 311.968C225.679 314.469 227.694 316.495 230.179 316.495Z" fill="#626879"/>
</g>
</g>
</g>
<path id="path4139_7" d="M314.5 310.5L314.5 421.5L237 421.5" stroke="#B5C6CF" stroke-width="2" stroke-dasharray="9.11 9.11"/>
<path id="input_1_primary_path_display" d="M237.5 311.5H315" stroke="#FE5F55" stroke-width="5" stroke-linecap="round" stroke-linejoin="round"/>
<path id="input_1_reserve_path_display" d="M315 311.5V421.5H237.5" stroke="#FE5F55" stroke-width="5" stroke-linecap="round" stroke-linejoin="round"/>
</g>
<g id="output_1">
<g id="rect8952" filter="url(#filter5_d_0_1)">
<path d="M984.5 258.5L801.5 258.5C794.873 258.5 789.5 263.873 789.5 270.5V320.5C789.5 327.127 794.873 332.5 801.5 332.5H984.5C991.127 332.5 996.5 327.127 996.5 320.5V270.5C996.5 263.873 991.127 258.5 984.5 258.5Z" fill="#F7F7F7"/>
<path d="M984.5 258.5L801.5 258.5C794.873 258.5 789.5 263.873 789.5 270.5V320.5C789.5 327.127 794.873 332.5 801.5 332.5H984.5C991.127 332.5 996.5 327.127 996.5 320.5V270.5C996.5 263.873 991.127 258.5 984.5 258.5Z" stroke="#C4C4C4" stroke-linecap="round"/>
</g>
<g id="header_6">
<path id="output_1_device_icon" d="M804.941 284.656C808.807 284.656 811.941 281.503 811.941 277.614C811.941 273.725 808.807 270.572 804.941 270.572C801.075 270.572 797.941 273.725 797.941 277.614C797.941 281.503 801.075 284.656 804.941 284.656Z" fill="#7ADC47"/>
<text id="output_1_header_label" fill="#626879" style="white-space: pre" xml:space="preserve" font-family="Roboto" font-size="21.3333" font-weight="500" letter-spacing="0em"><tspan x="822.317" y="281.819">&#x430;&#x444;&#x443; 1</tspan></text>
</g>
<g id="g8982">
<g id="g8970">
<path id="circle8962_3" d="M803.2 316.344C805.685 316.344 807.7 314.318 807.7 311.817C807.7 309.317 805.685 307.291 803.2 307.291C800.715 307.291 798.7 309.317 798.7 311.817C798.7 314.318 800.715 316.344 803.2 316.344Z" fill="#626879"/>
</g>
</g>
<g id="secondary_info_4">
<g id="g9004_6">
<text id="output_1_swr_value" fill="black" style="white-space: pre" xml:space="preserve" font-family="Roboto" font-size="17.3333" letter-spacing="0em"><tspan x="960.919" y="317.424">--</tspan></text>
<text id="text9002_9" fill="black" style="white-space: pre" xml:space="preserve" font-family="Roboto" font-size="16" letter-spacing="0em"><tspan x="833.5" y="317.469">&#x41a;&#x421;&#x412;</tspan></text>
</g>
</g>
</g>
</g>
<g id="layer_3">
<g id="signal_path_111">
<path id="path4139_8" d="M315.5 311.717C354.748 311.717 377 311.717 377 311.717" stroke="#FE5F55" stroke-width="5" stroke-linecap="round" stroke-linejoin="round"/>
<path id="path4139_9" d="M800 311.717L660 311.717" stroke="#FE5F55" stroke-width="5" stroke-linecap="round" stroke-linejoin="round"/>
</g>
<g id="signal_path_101">
<path id="path4139_10" d="M315.5 311.102L315.5 90.8084C354.748 90.8084 377 90.8084 377 90.8084" stroke="#FE5F55" stroke-width="5" stroke-linecap="round" stroke-linejoin="round"/>
<path id="path4139_11" d="M659 90.8085L723.5 90.8085L723.5 311.719L800.5 311.719" stroke="#FE5F55" stroke-width="5" stroke-linecap="round" stroke-linejoin="round"/>
</g>
</g>
</g>
<defs>
<filter id="filter0_d_0_1" x="350" y="4" width="339" height="225" filterUnits="userSpaceOnUse" color-interpolation-filters="sRGB">
<feFlood flood-opacity="0" result="BackgroundImageFix"/>
<feColorMatrix in="SourceAlpha" type="matrix" values="0 0 0 0 0 0 0 0 0 0 0 0 0 0 0 0 0 0 127 0" result="hardAlpha"/>
<feOffset dy="5"/>
<feGaussianBlur stdDeviation="10"/>
<feComposite in2="hardAlpha" operator="out"/>
<feColorMatrix type="matrix" values="0 0 0 0 0 0 0 0 0 0 0 0 0 0 0 0 0 0 0.2 0"/>
<feBlend mode="normal" in2="BackgroundImageFix" result="effect1_dropShadow_0_1"/>
<feBlend mode="normal" in="SourceGraphic" in2="effect1_dropShadow_0_1" result="shape"/>
</filter>
<filter id="filter1_d_0_1" x="351" y="224" width="339" height="225" filterUnits="userSpaceOnUse" color-interpolation-filters="sRGB">
<feFlood flood-opacity="0" result="BackgroundImageFix"/>
<feColorMatrix in="SourceAlpha" type="matrix" values="0 0 0 0 0 0 0 0 0 0 0 0 0 0 0 0 0 0 127 0" result="hardAlpha"/>
<feOffset dy="5"/>
<feGaussianBlur stdDeviation="10"/>
<feComposite in2="hardAlpha" operator="out"/>
<feColorMatrix type="matrix" values="0 0 0 0 0 0 0 0 0 0 0 0 0 0 0 0 0 0 0.2 0"/>
<feBlend mode="normal" in2="BackgroundImageFix" result="effect1_dropShadow_0_1"/>
<feBlend mode="normal" in="SourceGraphic" in2="effect1_dropShadow_0_1" result="shape"/>
</filter>
<filter id="filter2_d_0_1" x="1" y="0" width="265" height="201" filterUnits="userSpaceOnUse" color-interpolation-filters="sRGB">
<feFlood flood-opacity="0" result="BackgroundImageFix"/>
<feColorMatrix in="SourceAlpha" type="matrix" values="0 0 0 0 0 0 0 0 0 0 0 0 0 0 0 0 0 0 127 0" result="hardAlpha"/>
<feOffset dy="5"/>
<feGaussianBlur stdDeviation="10"/>
<feComposite in2="hardAlpha" operator="out"/>
<feColorMatrix type="matrix" values="0 0 0 0 0 0 0 0 0 0 0 0 0 0 0 0 0 0 0.2 0"/>
<feBlend mode="normal" in2="BackgroundImageFix" result="effect1_dropShadow_0_1"/>
<feBlend mode="normal" in="SourceGraphic" in2="effect1_dropShadow_0_1" result="shape"/>
</filter>
<filter id="filter3_d_0_1" x="0" y="353" width="265" height="137" filterUnits="userSpaceOnUse" color-interpolation-filters="sRGB">
<feFlood flood-opacity="0" result="BackgroundImageFix"/>
<feColorMatrix in="SourceAlpha" type="matrix" values="0 0 0 0 0 0 0 0 0 0 0 0 0 0 0 0 0 0 127 0" result="hardAlpha"/>
<feOffset dy="5"/>
<feGaussianBlur stdDeviation="10"/>
<feComposite in2="hardAlpha" operator="out"/>
<feColorMatrix type="matrix" values="0 0 0 0 0 0 0 0 0 0 0 0 0 0 0 0 0 0 0.2 0"/>
<feBlend mode="normal" in2="BackgroundImageFix" result="effect1_dropShadow_0_1"/>
<feBlend mode="normal" in="SourceGraphic" in2="effect1_dropShadow_0_1" result="shape"/>
</filter>
<filter id="filter4_d_0_1" x="0" y="243" width="265" height="139" filterUnits="userSpaceOnUse" color-interpolation-filters="sRGB">
<feFlood flood-opacity="0" result="BackgroundImageFix"/>
<feColorMatrix in="SourceAlpha" type="matrix" values="0 0 0 0 0 0 0 0 0 0 0 0 0 0 0 0 0 0 127 0" result="hardAlpha"/>
<feOffset dy="5"/>
<feGaussianBlur stdDeviation="10"/>
<feComposite in2="hardAlpha" operator="out"/>
<feColorMatrix type="matrix" values="0 0 0 0 0 0 0 0 0 0 0 0 0 0 0 0 0 0 0.2 0"/>
<feBlend mode="normal" in2="BackgroundImageFix" result="effect1_dropShadow_0_1"/>
<feBlend mode="normal" in="SourceGraphic" in2="effect1_dropShadow_0_1" result="shape"/>
</filter>
<filter id="filter5_d_0_1" x="769" y="243" width="248" height="115" filterUnits="userSpaceOnUse" color-interpolation-filters="sRGB">
<feFlood flood-opacity="0" result="BackgroundImageFix"/>
<feColorMatrix in="SourceAlpha" type="matrix" values="0 0 0 0 0 0 0 0 0 0 0 0 0 0 0 0 0 0 127 0" result="hardAlpha"/>
<feOffset dy="5"/>
<feGaussianBlur stdDeviation="10"/>
<feComposite in2="hardAlpha" operator="out"/>
<feColorMatrix type="matrix" values="0 0 0 0 0 0 0 0 0 0 0 0 0 0 0 0 0 0 0.2 0"/>
<feBlend mode="normal" in2="BackgroundImageFix" result="effect1_dropShadow_0_1"/>
<feBlend mode="normal" in="SourceGraphic" in2="effect1_dropShadow_0_1" result="shape"/>
</filter>
<clipPath id="clip0_0_1">
<rect width="14" height="14" fill="white" transform="translate(578.5 31.5)"/>
</clipPath>
<clipPath id="clip1_0_1">
<rect width="14" height="14" fill="white" transform="translate(579.5 251.5)"/>
</clipPath>
</defs>
</svg>
