<svg xmlns="http://www.w3.org/2000/svg" id="svg83" fill="none" viewBox="0 0 989 510">
  <g id="avr_1+1">
    <g id="layer_2" stroke="#b5c6cf" stroke-width="2">
      <path id="path4139" d="M359.42 325.75H230.5"/>
      <path id="path4139_2" d="M629.5 325.75h66v-121.5h65"/>
      <path id="path4139_3" stroke-dasharray="9.11 9.11" d="M629.5 82.75h66v121"/>
      <path id="path4139_4" stroke-dasharray="9.11 9.11" d="M359.5 82.75h-65v243"/>
    </g>
    <g id="layer_3" stroke="#fe5f55" stroke-linecap="round" stroke-linejoin="round" stroke-width="5">
      <g id="signal_path_4">
        <path id="path4139_5" d="M294.5 325.75h65"/>
        <path id="path4139_6" d="M760 204.25h-64.5v121.499l-66 .001"/>
      </g>
      <g id="signal_path_3">
        <path id="path4139_7" d="M294.5 215.75v110h65"/>
        <path id="path4139_8" d="M760 204.25h-64.5v121.5h-66"/>
      </g>
      <g id="signal_path_2">
        <path id="path4139_9" d="M294.5 325.75v-243h65"/>
        <use href="#path4139_10"/>
      </g>
      <g id="signal_path_1">
        <path id="path4139_11" d="M359.5 82.75h-65v133"/>
        <use id="path4139_12" href="#path4139_10"/>
      </g>
    </g>
    <g id="layer_1">
      <g id="output_1">
        <g id="rect8952" filter="url(#filter0_d_0_1)">
          <path id="path1" fill="#f7f7f7" d="M956.5 150.75h-199c-6.627 0-12 5.373-12 12v64.8c0 6.627 5.373 12 12 12h199c6.627 0 12-5.373 12-12v-64.8c0-6.627-5.373-12-12-12"/>
          <path id="path2" stroke="#c4c4c4" stroke-linecap="round" d="M956.5 150.75h-199c-6.627 0-12 5.373-12 12v64.8c0 6.627 5.373 12 12 12h199c6.627 0 12-5.373 12-12v-64.8c0-6.627-5.373-12-12-12Z"/>
        </g>
        <g id="header">
          <path id="output_1_device_icon" fill="#7adc47" d="M763 175.25a7.5 7.5 0 1 0 0-15 7.5 7.5 0 0 0 0 15"/>
          <text xml:space="preserve" id="output_1_header_label" fill="#626879" font-family="Roboto" font-size="21.333" font-weight="500" letter-spacing="0em" style="white-space:pre"><tspan id="tspan2" x="779.5" y="175.042">ВЫХОД</tspan></text>
        </g>
        <g id="g8982">
          <g id="g8970">
            <path id="circle8962" fill="#626879" d="M760.5 208.75a4.5 4.5 0 1 0 0-9 4.5 4.5 0 0 0 0 9"/>
          </g>
        </g>
        <g id="secondary_info" fill="#000" font-family="Roboto" letter-spacing="0em">
          <g id="g9004">
            <text xml:space="preserve" id="output_1_Pout_value" font-size="17.333" style="white-space:pre"><tspan id="tspan3" x="933.919" y="209.674">--</tspan></text>
            <text xml:space="preserve" id="text9002" font-size="16" style="white-space:pre"><tspan id="tspan4" x="770.5" y="209.219">Мощн. Вых.</tspan></text>
          </g>
          <g id="g9004_2">
            <text xml:space="preserve" id="output_1_swr_value" font-size="17.333" style="white-space:pre"><tspan id="tspan5" x="933.919" y="230.674">--</tspan></text>
            <text xml:space="preserve" id="text9002_2" font-size="16" style="white-space:pre"><tspan id="tspan6" x="770.5" y="230.219">КСВ</tspan></text>
          </g>
        </g>
      </g>
      <g id="exiter_1">
        <g id="rect8952-3" filter="url(#filter1_d_0_1)">
          <path id="path6" fill="#f7f7f7" d="M632.5 15.75h-276c-6.627 0-12 5.373-12 12v201c0 6.627 5.373 12 12 12h276c6.627 0 12-5.373 12-12v-201c0-6.627-5.373-12-12-12"/>
          <path id="path7" stroke="#c4c4c4" stroke-linecap="round" stroke-width="1.5" d="M632.5 15.75h-276c-6.627 0-12 5.373-12 12v201c0 6.627 5.373 12 12 12h276c6.627 0 12-5.373 12-12v-201c0-6.627-5.373-12-12-12Z"/>
        </g>
        <g id="secondary_info_2" fill="#000" font-family="Roboto" letter-spacing="0em">
          <g id="g8994">
            <text xml:space="preserve" id="exiter_1_input_signal_type_value" font-size="17.333" style="white-space:pre"><tspan id="tspan7" x="609.919" y="168.674">--</tspan></text>
            <text xml:space="preserve" id="text8992" font-size="16" style="white-space:pre"><tspan id="tspan8" x="369.5" y="168.951">Тип сигнала</tspan></text>
          </g>
          <g id="g8994_2">
            <text xml:space="preserve" id="exiter_1_freq_value" font-size="17.333" style="white-space:pre"><tspan id="tspan9" x="609.919" y="189.674">--</tspan></text>
            <text xml:space="preserve" id="text8992_2" font-size="16" style="white-space:pre"><tspan id="tspan10" x="369.5" y="189.951">Нес. частота</tspan></text>
          </g>
          <g id="g8994_3">
            <text xml:space="preserve" id="exiter_1_swr_value" font-size="17.333" style="white-space:pre"><tspan id="tspan11" x="609.919" y="210.674">--</tspan></text>
            <text xml:space="preserve" id="text8992_3" font-size="16" style="white-space:pre"><tspan id="tspan12" x="369.5" y="210.95">КСВ</tspan></text>
          </g>
          <g id="g8994_4">
            <text xml:space="preserve" id="exiter_1_temp_value" font-size="17.333" style="white-space:pre"><tspan id="tspan13" x="609.919" y="231.674">--</tspan></text>
            <text xml:space="preserve" id="text8992_4" font-size="16" style="white-space:pre"><tspan id="tspan14" x="369.5" y="231.951">Температура</tspan></text>
          </g>
        </g>
        <g id="path8985">
          <path id="path14" fill="#c4c4c4" d="M359.5 150.75h270z"/>
          <path id="path15" stroke="#c4c4c4" stroke-width=".809" d="M359.5 150.75h270"/>
        </g>
        <g id="exiter_1_control_buttons">
          <g id="Frame 45">
            <rect id="rect15" width="95" height="30" x="359.5" y="100.75" fill="#e5e5e5" fill-opacity=".8" rx="13"/>
            <rect id="rect16" width="95" height="30" x="359.5" y="100.75" stroke="#e3e3e3" rx="13"/>
            <text xml:space="preserve" id="text8992_5" fill="#626879" font-family="Roboto" font-size="14" letter-spacing="0em" style="white-space:pre"><tspan id="tspan16" x="388.734" y="143.535">Грубо</tspan></text>
            <g id="exiter_1_set_ex1_button" stroke-linecap="round" stroke-linejoin="round">
              <rect id="Rectangle 21" width="40" height="20" x="403.5" y="126.25" fill="#f3f3f3" fill-opacity=".7" stroke="#d5d5d5" rx="10" transform="rotate(180 403.5 126.25)"/>
              <path id="Vector 38" stroke="#626879" stroke-width="1.5" d="M383.5 122.25v-13m5 6.5-5-6.5-5 6.5"/>
            </g>
            <g id="exiter_1_set_ex2_button" stroke-linecap="round" stroke-linejoin="round">
              <rect id="Rectangle 21_2" width="40" height="20" fill="#f3f3f3" fill-opacity=".7" stroke="#d5d5d5" rx="10" transform="matrix(-1 0 0 1 450.5 106.25)"/>
              <path id="Vector 38_2" stroke="#626879" stroke-width="1.5" d="M430.5 109.25v13m5-6.5-5 6.5-5-6.5"/>
            </g>
          </g>
          <g id="Frame 43">
            <rect id="rect17" width="95" height="30" x="470.5" y="100.75" fill="#e5e5e5" fill-opacity=".8" rx="13"/>
            <rect id="rect18" width="95" height="30" x="470.5" y="100.75" stroke="#e3e3e3" rx="13"/>
            <text xml:space="preserve" id="text8992_6" fill="#626879" font-family="Roboto" font-size="14" letter-spacing="0em" style="white-space:pre"><tspan id="tspan18" x="498.326" y="143.535">Точно</tspan></text>
            <g id="exiter_1_set_ex3_button" stroke-linecap="round" stroke-linejoin="round">
              <rect id="Rectangle 21_3" width="40" height="20" x="514.5" y="126.25" fill="#f3f3f3" fill-opacity=".7" stroke="#d5d5d5" rx="10" transform="rotate(180 514.5 126.25)"/>
              <path id="Vector 38_3" stroke="#626879" stroke-width="1.5" d="M494.5 122.25v-13m5 6.5-5-6.5-5 6.5"/>
            </g>
            <g id="exiter_1_set_ex4_button" stroke-linecap="round" stroke-linejoin="round">
              <rect id="Rectangle 21_4" width="40" height="20" fill="#f3f3f3" fill-opacity=".7" stroke="#d5d5d5" rx="10" transform="matrix(-1 0 0 1 561.5 106.25)"/>
              <path id="Vector 38_4" stroke="#626879" stroke-width="1.5" d="M541.5 109.25v13m5-6.5-5 6.5-5-6.5"/>
            </g>
          </g>
          <g id="Frame 43_2">
            <rect id="rect19" width="47.5" height="30" x="582" y="100.75" fill="#e5e5e5" fill-opacity=".8" rx="13"/>
            <rect id="rect20" width="47.5" height="30" x="582" y="100.75" stroke="#e3e3e3" rx="13"/>
            <text xml:space="preserve" id="text8992_7" fill="#626879" font-family="Roboto" font-size="14" letter-spacing="0em" style="white-space:pre"><tspan id="tspan20" x="577.479" y="143.535">Принять</tspan></text>
            <g id="exiter_1_set_ex5_button" stroke-linecap="round" stroke-linejoin="round">
              <rect id="Rectangle 21_5" width="40" height="20" fill="#f3f3f3" fill-opacity=".7" stroke="#d5d5d5" rx="10" transform="matrix(-1 0 0 1 625.5 105.75)"/>
              <path id="Vector 38_5" stroke="#626879" stroke-width="1.5" d="m612.5 109.75-8.666 13-4.334-4.333"/>
            </g>
          </g>
          <g id="path8984">
            <path id="path20" fill="#c4c4c4" d="M462.5 143.75v-43z"/>
            <path id="path21" stroke="#c4c4c4" stroke-width=".809" d="M462.5 143.75v-43"/>
          </g>
          <g id="path8984_2">
            <path id="path22" fill="#c4c4c4" d="M573.75 143.75v-43z"/>
            <path id="path23" stroke="#c4c4c4" stroke-width=".809" d="M573.75 143.75v-43"/>
          </g>
        </g>
        <g id="header_2">
          <path id="exiter_1_device_icon" fill="#7adc47" d="M368.428 25.75h-12.857a1.07 1.07 0 0 0-1.071 1.071V39.68a1.07 1.07 0 0 0 1.071 1.071h12.857c.592 0 1.072-.48 1.072-1.071V26.82c0-.591-.48-1.071-1.072-1.071"/>
          <text xml:space="preserve" id="exiter_1_header_label" fill="#626879" font-family="Roboto" font-size="21" font-weight="500" letter-spacing="0em" style="white-space:pre"><tspan id="tspan23" x="376.648" y="40.428">передатчик ОСН.</tspan></text>
          <text xml:space="preserve" id="exiter_1_station_header_value" fill="#626879" font-family="Roboto" font-size="16" font-style="italic" letter-spacing="0em" style="white-space:pre"><tspan id="tspan24" x="377.5" y="61.719">--</tspan></text>
          <g id="exiter_1_power_button" clip-path="url(#clip0_0_1)">
            <path id="power_btn_cover" fill="#7adc47" d="M532 40.75a7.5 7.5 0 1 0 0-15 7.5 7.5 0 0 0 0 15"/>
            <path id="Vector" fill="#000" d="m535.35 29.275-.906.906a3.73 3.73 0 0 1 1.806 3.194 3.75 3.75 0 1 1-7.5 0c0-1.356.725-2.538 1.8-3.2l-.9-.9c-1.3.9-2.15 2.4-2.15 4.1a5 5 0 0 0 5 5 5 5 0 0 0 5-5c0-1.7-.85-3.2-2.15-4.1m-2.225-1.525h-1.25V34h1.25"/>
          </g>
        </g>
        <g id="path8984_3">
          <path id="path24" fill="#c4c4c4" d="M359.5 94.05h270z"/>
          <path id="path25" stroke="#c4c4c4" stroke-width=".809" d="M359.5 94.05h270"/>
        </g>
        <g id="primary_info_output">
          <g id="g10081-4">
            <path id="circle9062-2" fill="#626879" d="M629.5 87.75a5 5 0 1 0 0-10 5 5 0 0 0 0 10"/>
            <text xml:space="preserve" id="exiter_1_output_pwr_value" fill="#000" font-family="Roboto" font-size="20" letter-spacing="0em" style="white-space:pre"><tspan id="tspan25" x="608.445" y="89.086">--</tspan></text>
          </g>
        </g>
        <g id="primary_info_input">
          <path id="circle8962_2" fill="#626879" d="M359.5 87.75a5 5 0 1 0 0-10 5 5 0 0 0 0 10"/>
          <text xml:space="preserve" id="exiter_1_input_signal_value" fill="#000" font-family="Roboto" font-size="20" letter-spacing="0em" style="white-space:pre"><tspan id="tspan26" x="369.5" y="89.086">--</tspan></text>
        </g>
      </g>
      <g id="exiter_0">
        <g id="rect8952-3_2" filter="url(#filter2_d_0_1)">
          <path id="path26" fill="#f7f7f7" d="M632.5 258.75h-276c-6.627 0-12 5.373-12 12v201c0 6.627 5.373 12 12 12h276c6.627 0 12-5.373 12-12v-201c0-6.627-5.373-12-12-12"/>
          <path id="path27" stroke="#c4c4c4" stroke-dasharray="11 11" stroke-linecap="round" stroke-width="1.5" d="M632.5 258.75h-276c-6.627 0-12 5.373-12 12v201c0 6.627 5.373 12 12 12h276c6.627 0 12-5.373 12-12v-201c0-6.627-5.373-12-12-12Z"/>
        </g>
        <g id="secondary_info_3" fill="#000" font-family="Roboto" letter-spacing="0em">
          <g id="g8994_5">
            <text xml:space="preserve" id="exiter_0_input_signal_type_value" font-size="17.333" style="white-space:pre"><tspan id="tspan27" x="609.919" y="411.674">--</tspan></text>
            <text xml:space="preserve" id="text8992_8" font-size="16" style="white-space:pre"><tspan id="tspan28" x="369.5" y="411.951">Тип сигнала</tspan></text>
          </g>
          <g id="g8994_6">
            <text xml:space="preserve" id="exiter_0_freq_value" font-size="17.333" style="white-space:pre"><tspan id="tspan29" x="609.919" y="432.674">--</tspan></text>
            <text xml:space="preserve" id="text8992_9" font-size="16" style="white-space:pre"><tspan id="tspan30" x="369.5" y="432.951">Нес. частота</tspan></text>
          </g>
          <g id="g8994_7">
            <text xml:space="preserve" id="exiter_0_swr_value" font-size="17.333" style="white-space:pre"><tspan id="tspan31" x="609.919" y="453.674">--</tspan></text>
            <text xml:space="preserve" id="text8992_10" font-size="16" style="white-space:pre"><tspan id="tspan32" x="369.5" y="453.95">КСВ</tspan></text>
          </g>
          <g id="g8994_8">
            <text xml:space="preserve" id="exiter_0_temp_value" font-size="17.333" style="white-space:pre"><tspan id="tspan33" x="609.919" y="474.674">--</tspan></text>
            <text xml:space="preserve" id="text8992_11" font-size="16" style="white-space:pre"><tspan id="tspan34" x="369.5" y="474.951">Температура
</tspan></text>
          </g>
        </g>
        <g id="path8985_2">
          <path id="path34" fill="#c4c4c4" d="M359.5 393.75h270z"/>
          <path id="path35" stroke="#c4c4c4" stroke-width=".809" d="M359.5 393.75h270"/>
        </g>
        <g id="exiter_0_control_buttons">
          <g id="Frame 45_2">
            <rect id="rect35" width="95" height="30" x="359.5" y="343.75" fill="#e5e5e5" fill-opacity=".8" rx="13"/>
            <rect id="rect36" width="95" height="30" x="359.5" y="343.75" stroke="#e3e3e3" rx="13"/>
            <text xml:space="preserve" id="text8992_12" fill="#626879" font-family="Roboto" font-size="14" letter-spacing="0em" style="white-space:pre"><tspan id="tspan36" x="388.734" y="386.535">Грубо</tspan></text>
            <g id="exiter_0_set_ex1_button" stroke-linecap="round" stroke-linejoin="round">
              <rect id="Rectangle 21_6" width="40" height="20" x="403.5" y="369.25" fill="#f3f3f3" fill-opacity=".7" stroke="#d5d5d5" rx="10" transform="rotate(180 403.5 369.25)"/>
              <path id="Vector 38_6" stroke="#626879" stroke-width="1.5" d="M383.5 365.25v-13m5 6.5-5-6.5-5 6.5"/>
            </g>
            <g id="exiter_0_set_ex2_button" stroke-linecap="round" stroke-linejoin="round">
              <rect id="Rectangle 21_7" width="40" height="20" fill="#f3f3f3" fill-opacity=".7" stroke="#d5d5d5" rx="10" transform="matrix(-1 0 0 1 450.5 349.25)"/>
              <path id="Vector 38_7" stroke="#626879" stroke-width="1.5" d="M430.5 352.25v13m5-6.5-5 6.5-5-6.5"/>
            </g>
          </g>
          <g id="Frame 43_3">
            <rect id="rect37" width="95" height="30" x="470.5" y="343.75" fill="#e5e5e5" fill-opacity=".8" rx="13"/>
            <rect id="rect38" width="95" height="30" x="470.5" y="343.75" stroke="#e3e3e3" rx="13"/>
            <text xml:space="preserve" id="text8992_13" fill="#626879" font-family="Roboto" font-size="14" letter-spacing="0em" style="white-space:pre"><tspan id="tspan38" x="498.326" y="386.535">Точно</tspan></text>
            <g id="exiter_0_set_ex3_button" stroke-linecap="round" stroke-linejoin="round">
              <rect id="Rectangle 21_8" width="40" height="20" x="514.5" y="369.25" fill="#f3f3f3" fill-opacity=".7" stroke="#d5d5d5" rx="10" transform="rotate(180 514.5 369.25)"/>
              <path id="Vector 38_8" stroke="#626879" stroke-width="1.5" d="M494.5 365.25v-13m5 6.5-5-6.5-5 6.5"/>
            </g>
            <g id="exiter_0_set_ex4_button" stroke-linecap="round" stroke-linejoin="round">
              <rect id="Rectangle 21_9" width="40" height="20" fill="#f3f3f3" fill-opacity=".7" stroke="#d5d5d5" rx="10" transform="matrix(-1 0 0 1 561.5 349.25)"/>
              <path id="Vector 38_9" stroke="#626879" stroke-width="1.5" d="M541.5 352.25v13m5-6.5-5 6.5-5-6.5"/>
            </g>
          </g>
          <g id="Frame 43_4">
            <rect id="rect39" width="47.5" height="30" x="582" y="343.75" fill="#e5e5e5" fill-opacity=".8" rx="13"/>
            <rect id="rect40" width="47.5" height="30" x="582" y="343.75" stroke="#e3e3e3" rx="13"/>
            <text xml:space="preserve" id="text8992_14" fill="#626879" font-family="Roboto" font-size="14" letter-spacing="0em" style="white-space:pre"><tspan id="tspan40" x="577.479" y="386.535">Принять</tspan></text>
            <g id="exiter_0_set_ex5_button" stroke-linecap="round" stroke-linejoin="round">
              <rect id="Rectangle 21_10" width="40" height="20" fill="#f3f3f3" fill-opacity=".7" stroke="#d5d5d5" rx="10" transform="matrix(-1 0 0 1 625.5 348.75)"/>
              <path id="Vector 38_10" stroke="#626879" stroke-width="1.5" d="m612.5 352.75-8.666 13-4.334-4.333"/>
            </g>
          </g>
          <g id="path8984_4">
            <path id="path40" fill="#c4c4c4" d="M462.5 386.75v-43z"/>
            <path id="path41" stroke="#c4c4c4" stroke-width=".809" d="M462.5 386.75v-43"/>
          </g>
          <g id="path8984_5">
            <path id="path42" fill="#c4c4c4" d="M573.75 386.75v-43z"/>
            <path id="path43" stroke="#c4c4c4" stroke-width=".809" d="M573.75 386.75v-43"/>
          </g>
        </g>
        <g id="header_3">
          <path id="exiter_0_device_icon" fill="#7adc47" d="M368.428 268.75h-12.857c-.592 0-1.071.48-1.071 1.071v12.858c0 .591.479 1.071 1.071 1.071h12.857c.592 0 1.072-.48 1.072-1.071v-12.858c0-.591-.48-1.071-1.072-1.071"/>
          <text xml:space="preserve" id="exiter_0_header_label" fill="#626879" font-family="Roboto" font-size="21" font-weight="500" letter-spacing="0em" style="white-space:pre"><tspan id="tspan43" x="378.668" y="283.428">передатчик рез.</tspan></text>
          <text xml:space="preserve" id="exiter_0_station_header_value" fill="#626879" font-family="Roboto" font-size="16" font-style="italic" letter-spacing="0em" style="white-space:pre"><tspan id="tspan44" x="377.5" y="304.719">--</tspan></text>
        </g>
        <g id="path8984_6">
          <path id="path44" fill="#c4c4c4" d="M359.5 337.051h270z"/>
          <path id="path45" stroke="#c4c4c4" stroke-width=".809" d="M359.5 337.051h270"/>
        </g>
        <g id="primary_info_output_2">
          <g id="g10081-4_2">
            <path id="circle9062-2_2" fill="#626879" d="M629.5 330.75a5 5 0 1 0-.001-10.001 5 5 0 0 0 .001 10.001"/>
            <text xml:space="preserve" id="exiter_0_output_pwr_value" fill="#000" font-family="Roboto" font-size="20" letter-spacing="0em" style="white-space:pre"><tspan id="tspan45" x="608.445" y="332.086">--</tspan></text>
          </g>
        </g>
        <g id="primary_info_input_2">
          <path id="circle8962_3" fill="#626879" d="M359.5 330.75a5 5 0 1 0-.001-10.001 5 5 0 0 0 .001 10.001"/>
          <text xml:space="preserve" id="exiter_0_input_signal_value" fill="#000" font-family="Roboto" font-size="20" letter-spacing="0em" style="white-space:pre"><tspan id="tspan46" x="369.5" y="332.086">--</tspan></text>
        </g>
        <g id="exiter_0_power_button" clip-path="url(#clip1_0_1)">
          <path id="power_btn_cover_2" fill="#7adc47" d="M532 283.75a7.5 7.5 0 1 0 0-15 7.5 7.5 0 0 0 0 15"/>
          <path id="Vector_2" fill="#000" d="m535.35 272.275-.906.906a3.73 3.73 0 0 1 1.806 3.194 3.75 3.75 0 0 1-3.75 3.75 3.75 3.75 0 0 1-3.75-3.75c0-1.356.725-2.537 1.8-3.2l-.9-.9c-1.3.9-2.15 2.4-2.15 4.1 0 1.326.527 2.598 1.464 3.536a5.004 5.004 0 0 0 7.072 0 5 5 0 0 0 1.464-3.536c0-1.7-.85-3.2-2.15-4.1m-2.225-1.525h-1.25V277h1.25"/>
        </g>
      </g>
      <g id="voltage">
        <g id="rect8952_2" filter="url(#filter3_d_0_1)">
          <path id="path46" fill="#f7f7f7" d="M232.5 15.75h-200c-6.627 0-12 5.373-12 12v50c0 6.627 5.373 12 12 12h200c6.627 0 12-5.373 12-12v-50c0-6.627-5.373-12-12-12"/>
          <path id="path47" stroke="#c4c4c4" stroke-linecap="round" d="M232.5 15.75h-200c-6.627 0-12 5.373-12 12v50c0 6.627 5.373 12 12 12h200c6.627 0 12-5.373 12-12v-50c0-6.627-5.373-12-12-12Z"/>
        </g>
        <text xml:space="preserve" id="voltage_volt_value" x="4.46" y="0" fill="#000" font-family="Roboto" font-size="17.333" letter-spacing="0em" style="text-align:center;white-space:pre" text-anchor="middle"><tspan id="tspan47" x="128.71" y="71.674">--</tspan></text>
        <g id="header_4">
          <path id="voltage_device_icon" fill="#7adc47" d="M38 40.75a7.5 7.5 0 1 0 0-15 7.5 7.5 0 0 0 0 15"/>
          <text xml:space="preserve" id="voltage_header_label" fill="#626879" font-family="Roboto" font-size="21.333" font-weight="500" letter-spacing="0em" style="white-space:pre"><tspan id="tspan48" x="55.5" y="40.542">Напряжение сети</tspan></text>
        </g>
      </g>
      <g id="input_1">
        <path id="path4139_13" stroke="#b5c6cf" stroke-dasharray="9.11 9.11" stroke-width="2" d="M294 215.75h-62.5"/>
        <path id="input_1_reserve_path_display" stroke="#fe5f55" stroke-linecap="round" stroke-linejoin="round" stroke-width="5" d="M231.5 325.75h63"/>
        <path id="input_1_primary_path_display" stroke="#fe5f55" stroke-linecap="round" stroke-linejoin="round" stroke-width="5" d="M230.5 215.75H294"/>
        <g id="input_1_reserve">
          <g id="rect8952-3_3" filter="url(#filter4_d_0_1)">
            <path id="path48" fill="#f7f7f7" d="M233.5 272.75h-200c-6.627 0-12 5.373-12 12v72c0 6.627 5.373 12 12 12h200c6.627 0 12-5.373 12-12v-72c0-6.627-5.373-12-12-12"/>
            <path id="path49" stroke="#c4c4c4" stroke-linecap="round" d="M233.5 272.75h-200c-6.627 0-12 5.373-12 12v72c0 6.627 5.373 12 12 12h200c6.627 0 12-5.373 12-12v-72c0-6.627-5.373-12-12-12Z"/>
          </g>
          <g id="res_secondary_info" fill="#000" font-family="Roboto" font-size="16" letter-spacing="0em">
            <g id="input_1_res_l_group">
              <text xml:space="preserve" id="input_1_res_l_value" style="white-space:pre"><tspan id="tspan49" x="210.656" y="331.719">--</tspan></text>
              <text xml:space="preserve" id="text8992_15" style="white-space:pre"><tspan id="tspan50" x="45.5" y="331.719">L</tspan></text>
            </g>
            <g id="input_1_res_r_group">
              <text xml:space="preserve" id="input_1_res_r_value" style="white-space:pre"><tspan id="tspan51" x="210.656" y="355.719">--</tspan></text>
              <text xml:space="preserve" id="text9002_3" style="white-space:pre"><tspan id="tspan52" x="45.5" y="355.228">R</tspan></text>
            </g>
            <g id="input_1_res_mpx_group">
              <text xml:space="preserve" id="input_1_res_mpx_value" style="white-space:pre"><tspan id="tspan53" x="210.656" y="331.719">--</tspan></text>
              <text xml:space="preserve" id="text9002_4" style="white-space:pre"><tspan id="tspan54" x="45.5" y="331.719">КСС</tspan></text>
            </g>
            <g id="input_1_res_aes_r_group">
              <text xml:space="preserve" id="input_1_res_aes_r_value" style="white-space:pre"><tspan id="tspan55" x="210.656" y="355.719">--</tspan></text>
              <text xml:space="preserve" id="AES_R" style="white-space:pre"><tspan id="tspan56" x="45.5" y="355.719">AES_R</tspan></text>
            </g>
            <g id="input_1_res_aes_l_group">
              <text xml:space="preserve" id="input_1_res_aes_l_value" style="white-space:pre"><tspan id="tspan57" x="210.656" y="331.719">--</tspan></text>
              <text xml:space="preserve" id="AES_L" style="white-space:pre"><tspan id="tspan58" x="45.5" y="331.719">AES_L</tspan></text>
            </g>
          </g>
          <g id="header_5">
            <path id="input_1_device_icon" fill="#7adc47" d="M45.429 284.25H32.57c-.591 0-1.071.48-1.071 1.071v12.858c0 .591.48 1.071 1.071 1.071h12.86c.591 0 1.071-.48 1.071-1.071v-12.858c0-.591-.48-1.071-1.071-1.071"/>
            <text xml:space="preserve" id="input_1_header_label" fill="#626879" font-family="Roboto" font-size="21" font-weight="500" letter-spacing="0em" style="white-space:pre"><tspan id="tspan59" x="54.5" y="296.428">ВХод рез.</tspan></text>
          </g>
          <g id="g9929-10">
            <g id="g10081-4_3">
              <path id="circle9062-2_3" fill="#626879" d="M231.5 330.75a4.5 4.5 0 1 0 0-9 4.5 4.5 0 0 0 0 9"/>
            </g>
          </g>
        </g>
        <g id="input_1_primary">
          <g id="rect8952-3_4" filter="url(#filter5_d_0_1)">
            <path id="path59" fill="#f7f7f7" d="M232.5 161.75h-200c-6.627 0-12 5.373-12 12v73c0 6.627 5.373 12 12 12h200c6.627 0 12-5.373 12-12v-73c0-6.627-5.373-12-12-12"/>
            <path id="path60" stroke="#c4c4c4" stroke-linecap="round" d="M232.5 161.75h-200c-6.627 0-12 5.373-12 12v73c0 6.627 5.373 12 12 12h200c6.627 0 12-5.373 12-12v-73c0-6.627-5.373-12-12-12Z"/>
          </g>
          <g id="primary_secondary_info" fill="#000" font-family="Roboto" font-size="16" letter-spacing="0em">
            <g id="input_1_l_group">
              <text xml:space="preserve" id="input_1_l_value" style="white-space:pre"><tspan id="tspan60" x="210.656" y="220.219">--</tspan></text>
              <text xml:space="preserve" id="text8992_16" style="white-space:pre"><tspan id="tspan61" x="45.5" y="221.69">L</tspan></text>
            </g>
            <g id="input_1_r_group">
              <text xml:space="preserve" id="input_1_r_value" style="white-space:pre"><tspan id="tspan62" x="210.656" y="244.219">--</tspan></text>
              <text xml:space="preserve" id="text9002_5" style="white-space:pre"><tspan id="tspan63" x="45.5" y="244.219">R</tspan></text>
            </g>
            <g id="input_1_mpx_group">
              <text xml:space="preserve" id="input_1_mpx_value" style="white-space:pre"><tspan id="tspan64" x="210.656" y="220.219">--</tspan></text>
              <text xml:space="preserve" id="text9002_6" style="white-space:pre"><tspan id="tspan65" x="45.5" y="220.219">КСС</tspan></text>
            </g>
            <g id="input_1_aes_r_group">
              <text xml:space="preserve" id="input_1_aes_r_value" style="white-space:pre"><tspan id="tspan66" x="210.656" y="244.219">--</tspan></text>
              <text xml:space="preserve" id="AES_R_2" style="white-space:pre"><tspan id="tspan67" x="45.5" y="244.219">AES_R</tspan></text>
            </g>
            <g id="input_1_aes_l_group">
              <text xml:space="preserve" id="input_1_aes_l_value" style="white-space:pre"><tspan id="tspan68" x="210.656" y="220.219">--</tspan></text>
              <text xml:space="preserve" id="AES_L_2" style="white-space:pre"><tspan id="tspan69" x="45.5" y="220.219">AES_L</tspan></text>
            </g>
          </g>
          <g id="header_6">
            <g id="input_1_mode_switch">
              <path id="input_mode_switch_background" fill="#7adc47" d="M200.5 189.25c5.523 0 10-4.477 10-10s-4.477-10-10-10-10 4.477-10 10 4.477 10 10 10"/>
              <path id="Vector_3" fill="#000" d="M203.833 182.25h-6.666v-1.8l-2.667 2.4 2.667 2.4v-1.8h8v-3.6h-1.334m-6.666-3.6h6.666v1.8l2.667-2.4-2.667-2.4v1.8h-8v3.6h1.334z"/>
            </g>
            <path id="input_1_device_icon_2" fill="#7adc47" d="M45.429 173.25H32.57c-.591 0-1.071.48-1.071 1.071v12.858c0 .591.48 1.071 1.071 1.071h12.86c.591 0 1.071-.48 1.071-1.071v-12.858c0-.591-.48-1.071-1.071-1.071"/>
            <text xml:space="preserve" id="input_1_header_label_2" fill="#626879" font-family="Roboto" font-size="21" font-weight="500" letter-spacing="0em" style="white-space:pre"><tspan id="tspan70" x="54.5" y="185.928">Вход Осн.</tspan></text>
          </g>
          <g id="g9929-10_2">
            <g id="g10081-4_4">
              <path id="circle9062-2_4" fill="#626879" d="M231 219.75a4.5 4.5 0 1 0 0-9 4.5 4.5 0 0 0 0 9"/>
            </g>
          </g>
        </g>
      </g>
    </g>
  </g>
  <defs id="defs83">
    <filter id="filter0_d_0_1" width="264" height="129.8" x="725" y="135.25" color-interpolation-filters="sRGB" filterUnits="userSpaceOnUse">
      <feFlood id="feFlood70" flood-opacity="0" result="BackgroundImageFix"/>
      <feColorMatrix id="feColorMatrix70" in="SourceAlpha" result="hardAlpha" type="matrix" values="0 0 0 0 0 0 0 0 0 0 0 0 0 0 0 0 0 0 127 0"/>
      <feOffset id="feOffset70" dy="5"/>
      <feGaussianBlur id="feGaussianBlur70" stdDeviation="10"/>
      <feComposite id="feComposite70" in2="hardAlpha" operator="out"/>
      <feColorMatrix id="feColorMatrix71" type="matrix" values="0 0 0 0 0 0 0 0 0 0 0 0 0 0 0 0 0 0 0.2 0"/>
      <feBlend id="feBlend71" in2="BackgroundImageFix" mode="normal" result="effect1_dropShadow_0_1"/>
      <feBlend id="feBlend72" in="SourceGraphic" in2="effect1_dropShadow_0_1" mode="normal" result="shape"/>
    </filter>
    <filter id="filter1_d_0_1" width="341.5" height="266.5" x="323.75" y="0" color-interpolation-filters="sRGB" filterUnits="userSpaceOnUse">
      <feFlood id="feFlood72" flood-opacity="0" result="BackgroundImageFix"/>
      <feColorMatrix id="feColorMatrix72" in="SourceAlpha" result="hardAlpha" type="matrix" values="0 0 0 0 0 0 0 0 0 0 0 0 0 0 0 0 0 0 127 0"/>
      <feOffset id="feOffset72" dy="5"/>
      <feGaussianBlur id="feGaussianBlur72" stdDeviation="10"/>
      <feComposite id="feComposite72" in2="hardAlpha" operator="out"/>
      <feColorMatrix id="feColorMatrix73" type="matrix" values="0 0 0 0 0 0 0 0 0 0 0 0 0 0 0 0 0 0 0.2 0"/>
      <feBlend id="feBlend73" in2="BackgroundImageFix" mode="normal" result="effect1_dropShadow_0_1"/>
      <feBlend id="feBlend74" in="SourceGraphic" in2="effect1_dropShadow_0_1" mode="normal" result="shape"/>
    </filter>
    <filter id="filter2_d_0_1" width="341.5" height="266.5" x="323.75" y="243" color-interpolation-filters="sRGB" filterUnits="userSpaceOnUse">
      <feFlood id="feFlood74" flood-opacity="0" result="BackgroundImageFix"/>
      <feColorMatrix id="feColorMatrix74" in="SourceAlpha" result="hardAlpha" type="matrix" values="0 0 0 0 0 0 0 0 0 0 0 0 0 0 0 0 0 0 127 0"/>
      <feOffset id="feOffset74" dy="5"/>
      <feGaussianBlur id="feGaussianBlur74" stdDeviation="10"/>
      <feComposite id="feComposite74" in2="hardAlpha" operator="out"/>
      <feColorMatrix id="feColorMatrix75" type="matrix" values="0 0 0 0 0 0 0 0 0 0 0 0 0 0 0 0 0 0 0.2 0"/>
      <feBlend id="feBlend75" in2="BackgroundImageFix" mode="normal" result="effect1_dropShadow_0_1"/>
      <feBlend id="feBlend76" in="SourceGraphic" in2="effect1_dropShadow_0_1" mode="normal" result="shape"/>
    </filter>
    <filter id="filter3_d_0_1" width="265" height="115" x="0" y=".25" color-interpolation-filters="sRGB" filterUnits="userSpaceOnUse">
      <feFlood id="feFlood76" flood-opacity="0" result="BackgroundImageFix"/>
      <feColorMatrix id="feColorMatrix76" in="SourceAlpha" result="hardAlpha" type="matrix" values="0 0 0 0 0 0 0 0 0 0 0 0 0 0 0 0 0 0 127 0"/>
      <feOffset id="feOffset76" dy="5"/>
      <feGaussianBlur id="feGaussianBlur76" stdDeviation="10"/>
      <feComposite id="feComposite76" in2="hardAlpha" operator="out"/>
      <feColorMatrix id="feColorMatrix77" type="matrix" values="0 0 0 0 0 0 0 0 0 0 0 0 0 0 0 0 0 0 0.2 0"/>
      <feBlend id="feBlend77" in2="BackgroundImageFix" mode="normal" result="effect1_dropShadow_0_1"/>
      <feBlend id="feBlend78" in="SourceGraphic" in2="effect1_dropShadow_0_1" mode="normal" result="shape"/>
    </filter>
    <filter id="filter4_d_0_1" width="265" height="137" x="1" y="257.25" color-interpolation-filters="sRGB" filterUnits="userSpaceOnUse">
      <feFlood id="feFlood78" flood-opacity="0" result="BackgroundImageFix"/>
      <feColorMatrix id="feColorMatrix78" in="SourceAlpha" result="hardAlpha" type="matrix" values="0 0 0 0 0 0 0 0 0 0 0 0 0 0 0 0 0 0 127 0"/>
      <feOffset id="feOffset78" dy="5"/>
      <feGaussianBlur id="feGaussianBlur78" stdDeviation="10"/>
      <feComposite id="feComposite78" in2="hardAlpha" operator="out"/>
      <feColorMatrix id="feColorMatrix79" type="matrix" values="0 0 0 0 0 0 0 0 0 0 0 0 0 0 0 0 0 0 0.2 0"/>
      <feBlend id="feBlend79" in2="BackgroundImageFix" mode="normal" result="effect1_dropShadow_0_1"/>
      <feBlend id="feBlend80" in="SourceGraphic" in2="effect1_dropShadow_0_1" mode="normal" result="shape"/>
    </filter>
    <filter id="filter5_d_0_1" width="265" height="138" x="0" y="146.25" color-interpolation-filters="sRGB" filterUnits="userSpaceOnUse">
      <feFlood id="feFlood80" flood-opacity="0" result="BackgroundImageFix"/>
      <feColorMatrix id="feColorMatrix80" in="SourceAlpha" result="hardAlpha" type="matrix" values="0 0 0 0 0 0 0 0 0 0 0 0 0 0 0 0 0 0 127 0"/>
      <feOffset id="feOffset80" dy="5"/>
      <feGaussianBlur id="feGaussianBlur80" stdDeviation="10"/>
      <feComposite id="feComposite80" in2="hardAlpha" operator="out"/>
      <feColorMatrix id="feColorMatrix81" type="matrix" values="0 0 0 0 0 0 0 0 0 0 0 0 0 0 0 0 0 0 0.2 0"/>
      <feBlend id="feBlend81" in2="BackgroundImageFix" mode="normal" result="effect1_dropShadow_0_1"/>
      <feBlend id="feBlend82" in="SourceGraphic" in2="effect1_dropShadow_0_1" mode="normal" result="shape"/>
    </filter>
    <clipPath id="clip0_0_1">
      <use href="#rect82" transform="translate(524.5 25.75)"/>
    </clipPath>
    <clipPath id="clip1_0_1">
      <use id="rect83" href="#rect82" transform="translate(524.5 268.75)"/>
    </clipPath>
    <path id="path4139_10" d="M629.5 82.75h66v121.5h65"/>
    <path id="rect82" fill="#fff" d="M0 0h15v15H0z"/>
  </defs>
</svg>
